:SAMPLES-PER-SECOND 30
:FRAME-RANGE 1-668
:FULLY-SPECIFIED
:DEGREES
63
root  10.3703 39.8879 27.0559 -172.057 15.8939 -178.308
RightUpLeg  -10.7417 3.81462 0.51466
RightLeg  15.0666 5.69662 1.49948
RightFoot  -11.3225 -0.0777944 5.43968
RightToes  5.38607e-012 1.2921e-014 -6.02303e-014
Spine  -8.77532 -3.09106 -2.64809
Spine1  13.734 -1.81994 -4.35817
HEad  14.7094 -21.0077 2.37233
LeftShoulder1  1.14414 -0.86761 -21.2845
LeftArm  -9.54275 4.71711 -38.0257
LeftForeArm  23.9589 3.0123 -9.16767
LeftHand  -0.0362491 3.7194 1.20026
RightShoulder  1.50411 3.74558 14.5291
RightArm  4.63867 23.5778 21.5427
RightForeArm  72.2708 41.7814 5.77658
RightHand  0.765192 -8.19169 -30.9516
LeftUpLeg  -15.7932 0.34655 -1.44707
LeftLeg  13.671 8.35335 3.74244
LeftFoot  -4.87652 -0.053168 1.46187
LeftToes  -6.11857e-011 5.00151e-011 -2.22593e-011
64
root  10.4499 39.8931 27.1604 -172.335 14.9431 -178.616
RightUpLeg  -10.1096 3.76286 0.746035
RightLeg  14.3247 5.06887 1.10217
RightFoot  -10.2185 -0.097194 2.84264
RightToes  5.38607e-012 1.2921e-014 -6.02303e-014
Spine  -8.69433 -3.37341 -2.65171
Spine1  13.7339 -2.08978 -4.35742
HEad  14.6183 -20.5927 1.85386
LeftShoulder1  1.146 -0.841367 -21.5171
LeftArm  -9.21149 4.91918 -37.222
LeftForeArm  23.8751 2.79377 -9.2753
LeftHand  -0.0370662 3.74297 1.21666
RightShoulder  1.39626 3.3699 14.0591
RightArm  5.30803 20.6999 19.1367
RightForeArm  75.6801 47.0084 7.19261
RightHand  0.778812 -8.39997 -29.472
LeftUpLeg  -15.7412 -0.42829 -1.57399
LeftLeg  13.5383 8.21716 3.76035
LeftFoot  -4.58985 -0.0479772 1.28244
LeftToes  -6.11857e-011 5.00151e-011 -2.22593e-011
65
root  10.5025 39.8899 27.2999 -172.564 14.4973 -178.993
RightUpLeg  -9.91636 1.65022 0.698005
RightLeg  13.8777 6.09952 1.31182
RightFoot  -9.7789 -0.0804862 1.04101
RightToes  5.38607e-012 1.2921e-014 -6.02303e-014
Spine  -8.40499 -3.48627 -2.39619
Spine1  13.4768 -2.13695 -4.57652
HEad  14.2723 -20.1948 1.28233
LeftShoulder1  1.11569 -0.673389 -21.9469
LeftArm  -8.61171 4.89499 -36.2481
LeftForeArm  23.7915 2.61817 -9.47204
LeftHand  -0.0362467 3.67288 1.26461
RightShoulder  1.29543 3.049 13.4608
RightArm  7.06498 18.0226 16.9025
RightForeArm  76.4701 52.5178 9.12904
RightHand  0.726225 -8.30011 -28.5276
LeftUpLeg  -15.7973 -1.50584 -1.76449
LeftLeg  13.5107 8.76643 3.97225
LeftFoot  -4.29146 -0.0285317 0.883155
LeftToes  -6.11857e-011 5.00151e-011 -2.22593e-011
66
root  10.5294 39.8733 27.4813 -172.718 14.3745 -179.157
RightUpLeg  -10.0368 0.48664 0.66527
RightLeg  13.8697 6.91586 1.55488
RightFoot  -9.60501 -0.0756482 0.695913
RightToes  5.38607e-012 1.2921e-014 -6.02303e-014
Spine  -8.04132 -3.52565 -1.79859
Spine1  13.3314 -2.09299 -4.94611
HEad  13.6318 -19.7671 0.915609
LeftShoulder1  1.12982 -0.67403 -22.3193
LeftArm  -8.45944 5.05546 -35.5697
LeftForeArm  24.0172 2.37118 -9.52546
LeftHand  -0.0364013 3.78106 1.36593
RightShoulder  1.23616 2.88441 12.9939
RightArm  8.38805 16.4836 15.3953
RightForeArm  77.8588 56.4532 10.7983
RightHand  0.776214 -8.65785 -27.2615
LeftUpLeg  -16.2035 -2.54484 -1.62329
LeftLeg  14.0651 9.64096 4.13529
LeftFoot  -4.25875 -0.000172606 0.417482
LeftToes  -6.11857e-011 5.00151e-011 -2.22593e-011
67
root  10.5212 39.8328 27.6868 -172.814 14.2253 -179.085
RightUpLeg  -10.403 -1.74703 0.654602
RightLeg  14.2803 9.02035 2.41492
RightFoot  -9.581 -0.0651626 0.0163682
RightToes  5.38607e-012 1.2921e-014 -6.02303e-014
Spine  -7.65897 -3.56263 -1.15869
Spine1  13.3477 -2.14357 -5.01938
HEad  13.1401 -19.4081 0.516473
LeftShoulder1  1.13216 -0.612373 -22.8554
LeftArm  -8.02007 4.57632 -34.9062
LeftForeArm  23.877 2.60215 -9.67581
LeftHand  -0.0362453 3.76898 1.19872
RightShoulder  1.17094 2.73251 12.3459
RightArm  8.31874 16.0071 15.1045
RightForeArm  77.5995 56.9397 11.0497
RightHand  0.731311 -8.61228 -26.1592
LeftUpLeg  -17.0417 -2.81396 -1.17677
LeftLeg  15.4194 9.80649 3.90176
LeftFoot  -4.8896 0.0304659 -0.0181911
LeftToes  -6.11857e-011 5.00151e-011 -2.22593e-011
68
root  10.4796 39.8184 27.8694 -172.935 14.0203 -178.954
RightUpLeg  -10.4726 -2.15829 0.780327
RightLeg  14.1803 9.23674 2.50438
RightFoot  -9.39764 -0.0641789 0.0297619
RightToes  5.38607e-012 1.2921e-014 -6.02303e-014
Spine  -7.73569 -3.56341 -0.605318
Spine1  13.925 -2.20908 -4.81812
HEad  12.8152 -19.1326 0.210971
LeftShoulder1  1.17647 -0.73065 -23.1216
LeftArm  -7.25549 3.98982 -34.6812
LeftForeArm  23.3808 3.03665 -9.97519
LeftHand  -0.0341092 3.76742 1.03546
RightShoulder  1.15898 2.81075 11.8551
RightArm  9.24775 16.5071 14.7507
RightForeArm  76.083 55.0426 10.2208
RightHand  0.681193 -8.36898 -26.3546
LeftUpLeg  -17.7363 -2.27661 -0.842157
LeftLeg  16.8776 10.108 3.89231
LeftFoot  -6.23105 0.101133 -1.42713
LeftToes  -6.11857e-011 5.00151e-011 -2.22593e-011
69
root  10.4178 39.8105 28.0098 -173.173 13.9448 -178.83
RightUpLeg  -10.3497 -2.55716 0.834442
RightLeg  14.0474 9.54729 2.63152
RightFoot  -9.21888 -0.0638219 0.0730316
RightToes  5.38607e-012 1.2921e-014 -6.02303e-014
Spine  -7.90994 -3.48156 0.0255177
Spine1  14.4957 -2.13447 -4.82315
HEad  12.9042 -18.9254 -0.00715134
LeftShoulder1  1.19011 -0.753298 -23.3049
LeftArm  -5.64496 3.33245 -34.2736
LeftForeArm  23.0994 3.3634 -10.6355
LeftHand  -0.0293654 3.72083 0.678938
RightShoulder  1.1658 2.94637 11.524
RightArm  10.9903 17.3659 14.6727
RightForeArm  74.2269 52.6044 9.2627
RightHand  0.631124 -8.02417 -27.513
LeftUpLeg  -18.1887 -1.03749 -0.594839
LeftLeg  18.9454 12.8973 5.20165
LeftFoot  -7.67773 0.107252 -1.91198
LeftToes  -6.11857e-011 5.00151e-011 -2.22593e-011
70
root  10.3538 39.8075 28.1166 -173.409 13.8593 -178.732
RightUpLeg  -10.2178 -2.71512 0.857651
RightLeg  13.9641 9.57826 2.66194
RightFoot  -9.079 -0.0665149 0.252332
RightToes  5.38607e-012 1.2921e-014 -6.02303e-014
Spine  -7.96981 -3.41734 0.425498
Spine1  14.5915 -2.09425 -4.78275
HEad  13.6299 -18.6719 -0.287031
LeftShoulder1  1.23835 -0.92183 -23.2765
LeftArm  -4.77076 3.07865 -33.6065
LeftForeArm  23.7143 3.94295 -11.0233
LeftHand  -0.0251754 3.67772 0.370363
RightShoulder  1.1836 3.09006 11.3727
RightArm  12.0973 18.3476 14.9815
RightForeArm  72.3274 50.0735 8.37546
RightHand  0.550923 -7.599 -28.5487
LeftUpLeg  -18.2785 0.0934289 0.017747
LeftLeg  21.0609 15.0017 6.60068
LeftFoot  -8.93143 0.0925603 -1.85173
LeftToes  -6.11857e-011 5.00151e-011 -2.22593e-011
71
root  10.2913 39.7902 28.1983 -173.602 13.579 -178.631
RightUpLeg  -10.1545 -2.91261 0.880765
RightLeg  14.0586 9.46362 2.69707
RightFoot  -9.08132 -0.0690288 0.378966
RightToes  5.38607e-012 1.2921e-014 -6.02303e-014
Spine  -8.05515 -3.47634 0.516977
Spine1  14.5667 -2.20818 -4.57246
HEad  14.5284 -18.1634 -0.385424
LeftShoulder1  1.24648 -1.00594 -22.8723
LeftArm  -4.71999 3.18045 -32.8634
LeftForeArm  23.7158 4.59901 -11.0357
LeftHand  -0.027448 3.86148 0.385391
RightShoulder  1.18611 3.09736 11.3931
RightArm  13.123 19.499 15.6956
RightForeArm  71.1599 48.0671 7.72213
RightHand  0.538723 -7.54882 -28.5666
LeftUpLeg  -18.1012 0.0978594 1.26951
LeftLeg  22.8529 14.6702 7.00404
LeftFoot  -9.57776 0.0827413 -1.64083
LeftToes  -6.11857e-011 5.00151e-011 -2.22593e-011
72
root  10.21 39.7633 28.2635 -173.763 13.2795 -178.538
RightUpLeg  -10.1769 -3.3109 0.829588
RightLeg  14.3131 9.57288 2.85939
RightFoot  -9.1915 -0.0714389 0.486949
RightToes  5.38607e-012 1.2921e-014 -6.02303e-014
Spine  -8.02708 -3.55659 0.394197
Spine1  14.2748 -2.38426 -4.20335
HEad  15.2623 -17.4923 -0.378827
LeftShoulder1  1.21203 -0.889641 -22.8508
LeftArm  -4.60843 3.56329 -31.2008
LeftForeArm  22.7337 4.45922 -11.0137
LeftHand  -0.0274652 3.71666 0.532629
RightShoulder  1.20863 3.16225 11.5766
RightArm  14.6452 20.5134 16.5447
RightForeArm  69.9063 46.5504 7.2768
RightHand  0.530634 -7.52706 -28.441
LeftUpLeg  -17.6729 -0.559186 2.98982
LeftLeg  24.2433 13.1575 6.721
LeftFoot  -10.209 0.0758812 -1.47866
LeftToes  -6.11857e-011 5.00151e-011 -2.22593e-011
73
root  10.1025 39.7418 28.3027 -173.981 12.9619 -178.483
RightUpLeg  -10.1432 -3.50868 0.730217
RightLeg  14.6042 9.46421 2.88882
RightFoot  -9.29591 -0.0748749 0.664373
RightToes  5.38607e-012 1.2921e-014 -6.02303e-014
Spine  -7.98945 -3.57416 0.275963
Spine1  14.0209 -2.43719 -4.01242
HEad  15.725 -16.8846 -0.167198
LeftShoulder1  1.17208 -0.774397 -22.6773
LeftArm  -5.11797 4.16237 -29.3331
LeftForeArm  21.3829 3.89971 -10.7291
LeftHand  -0.0272187 3.51041 0.527299
RightShoulder  1.25914 3.28712 12.0402
RightArm  17.3721 21.2292 17.442
RightForeArm  66.9914 45.0893 6.94518
RightHand  0.558841 -7.58384 -29.0939
LeftUpLeg  -16.845 -1.40156 4.8969
LeftLeg  25.0917 12.9229 6.84564
LeftFoot  -10.6289 0.0713601 -1.21765
LeftToes  -6.11857e-011 5.00151e-011 -2.22593e-011
74
root  9.96282 39.732 28.3241 -174.155 12.4942 -178.479
RightUpLeg  -10.0837 -3.24878 0.584611
RightLeg  14.7493 8.79671 2.61842
RightFoot  -9.39069 -0.0798262 0.949193
RightToes  5.38607e-012 1.2921e-014 -6.02303e-014
Spine  -8.02285 -3.5036 0.155837
Spine1  13.8173 -2.36488 -3.94618
HEad  15.9239 -16.678 0.345558
LeftShoulder1  1.18 -0.892291 -22.0224
LeftArm  -5.86948 4.76732 -27.8841
LeftForeArm  20.2358 3.47424 -10.3607
LeftHand  -0.0314246 3.54986 0.817566
RightShoulder  1.30832 3.33993 12.6964
RightArm  20.0979 21.44 18.5689
RightForeArm  63.6893 43.5473 6.62977
RightHand  0.642917 -7.9016 -29.2069
LeftUpLeg  -15.8275 -1.68768 6.80397
LeftLeg  25.2103 13.3672 7.09739
LeftFoot  -10.5135 0.0709826 -1.0907
LeftToes  -6.11857e-011 5.00151e-011 -2.22593e-011
